<svg width="40" height="42" viewBox="0 0 40 42" fill="none" xmlns="http://www.w3.org/2000/svg">
<path d="M7.42801 7.25593L3.75 14.6192H18.8393V5.3335H10.5474C9.22712 5.3335 8.02288 6.08071 7.42801 7.25593ZM21.1607 14.6192H36.25L32.572 7.25593C31.9771 6.08071 30.7729 5.3335 29.4526 5.3335H21.1607V14.6192ZM36.25 16.9406H3.75V33.1906C3.75 35.7515 5.83203 37.8335 8.39286 37.8335H31.6071C34.168 37.8335 36.25 35.7515 36.25 33.1906V16.9406Z" fill="url(#paint0_linear_249_461)"/>
<circle cx="27.5001" cy="29.4998" r="5.83333" fill="white"/>
<mask id="path-3-outside-1_249_461" maskUnits="userSpaceOnUse" x="17.1667" y="19.1665" width="21" height="21" fill="black">
<rect fill="white" x="17.1667" y="19.1665" width="21" height="21"/>
<path d="M33.5108 21.5757L33.641 24.27C32.8847 23.3778 31.943 22.6613 30.8815 22.1703C29.82 21.6792 28.6641 21.4256 27.4945 21.4269C23.5525 21.4269 20.2706 24.2563 19.5668 27.9966C19.5564 28.0529 19.5585 28.1109 19.573 28.1663C19.5875 28.2218 19.614 28.2734 19.6507 28.3174C19.6873 28.3615 19.7332 28.3969 19.7851 28.4212C19.837 28.4456 19.8936 28.4582 19.9509 28.4582H21.5476C21.6356 28.4581 21.721 28.4283 21.79 28.3735C21.8589 28.3188 21.9074 28.2424 21.9275 28.1567C22.1879 27.0761 22.7572 26.0945 23.566 25.3319C24.3747 24.5693 25.388 24.0586 26.482 23.8621C27.5761 23.6656 28.7038 23.7917 29.7274 24.2252C30.751 24.6587 31.6263 25.3807 32.2465 26.3032L28.9438 26.145C28.8909 26.1425 28.8381 26.1508 28.7886 26.1693C28.739 26.1878 28.6937 26.2161 28.6555 26.2527C28.6172 26.2892 28.5868 26.3331 28.566 26.3817C28.5452 26.4304 28.5345 26.4827 28.5346 26.5356V28.0789C28.5346 28.1825 28.5757 28.2819 28.649 28.3552C28.7223 28.4284 28.8216 28.4696 28.9252 28.4696H35.4428C35.5464 28.4696 35.6457 28.4284 35.719 28.3552C35.7923 28.2819 35.8334 28.1825 35.8334 28.0789V21.5571C35.8334 21.4535 35.7923 21.3542 35.719 21.2809C35.6457 21.2077 35.5464 21.1665 35.4428 21.1665H33.9008C33.848 21.1665 33.7957 21.1773 33.7471 21.1981C33.6985 21.2189 33.6547 21.2494 33.6182 21.2876C33.5818 21.3259 33.5535 21.3711 33.535 21.4206C33.5165 21.4702 33.5083 21.5229 33.5108 21.5757ZM27.4945 35.229C26.5553 35.2298 25.6303 34.9992 24.8013 34.5574C23.9724 34.1157 23.2651 33.4765 22.7419 32.6965L26.0557 32.855C26.1086 32.8575 26.1614 32.8492 26.2109 32.8307C26.2605 32.8122 26.3058 32.7839 26.344 32.7473C26.3823 32.7108 26.4127 32.6669 26.4335 32.6183C26.4543 32.5696 26.465 32.5173 26.4649 32.4644V30.9214C26.4649 30.8178 26.4238 30.7184 26.3505 30.6452C26.2773 30.5719 26.1779 30.5308 26.0743 30.5308H19.5574C19.4538 30.5308 19.3544 30.5719 19.2812 30.6452C19.2079 30.7184 19.1667 30.8178 19.1667 30.9214V37.4425C19.1667 37.5461 19.2079 37.6455 19.2812 37.7188C19.3544 37.792 19.4538 37.8332 19.5574 37.8332H21.0987C21.1517 37.8332 21.2041 37.8225 21.2529 37.8017C21.3016 37.7808 21.3455 37.7503 21.3821 37.7119C21.4186 37.6736 21.447 37.6282 21.4654 37.5785C21.4838 37.5288 21.492 37.4759 21.4893 37.423L21.3542 34.7352C22.1104 35.6255 23.0514 36.3406 24.1117 36.8306C25.1721 37.3206 26.3264 37.5739 27.4945 37.5728C31.4369 37.5728 34.7188 34.7433 35.4226 31.0031C35.433 30.9467 35.4309 30.8888 35.4164 30.8333C35.4019 30.7779 35.3754 30.7263 35.3387 30.6823C35.3021 30.6382 35.2562 30.6028 35.2043 30.5784C35.1524 30.5541 35.0958 30.5415 35.0385 30.5415H33.4418C33.3538 30.5416 33.2684 30.5714 33.1994 30.6261C33.1305 30.6808 33.082 30.7572 33.0619 30.8429C32.7613 32.093 32.0486 33.2055 31.0386 34.0012C30.0287 34.7968 28.7803 35.2293 27.4945 35.229Z"/>
</mask>
<path d="M33.5108 21.5757L33.641 24.27C32.8847 23.3778 31.943 22.6613 30.8815 22.1703C29.82 21.6792 28.6641 21.4256 27.4945 21.4269C23.5525 21.4269 20.2706 24.2563 19.5668 27.9966C19.5564 28.0529 19.5585 28.1109 19.573 28.1663C19.5875 28.2218 19.614 28.2734 19.6507 28.3174C19.6873 28.3615 19.7332 28.3969 19.7851 28.4212C19.837 28.4456 19.8936 28.4582 19.9509 28.4582H21.5476C21.6356 28.4581 21.721 28.4283 21.79 28.3735C21.8589 28.3188 21.9074 28.2424 21.9275 28.1567C22.1879 27.0761 22.7572 26.0945 23.566 25.3319C24.3747 24.5693 25.388 24.0586 26.482 23.8621C27.5761 23.6656 28.7038 23.7917 29.7274 24.2252C30.751 24.6587 31.6263 25.3807 32.2465 26.3032L28.9438 26.145C28.8909 26.1425 28.8381 26.1508 28.7886 26.1693C28.739 26.1878 28.6937 26.2161 28.6555 26.2527C28.6172 26.2892 28.5868 26.3331 28.566 26.3817C28.5452 26.4304 28.5345 26.4827 28.5346 26.5356V28.0789C28.5346 28.1825 28.5757 28.2819 28.649 28.3552C28.7223 28.4284 28.8216 28.4696 28.9252 28.4696H35.4428C35.5464 28.4696 35.6457 28.4284 35.719 28.3552C35.7923 28.2819 35.8334 28.1825 35.8334 28.0789V21.5571C35.8334 21.4535 35.7923 21.3542 35.719 21.2809C35.6457 21.2077 35.5464 21.1665 35.4428 21.1665H33.9008C33.848 21.1665 33.7957 21.1773 33.7471 21.1981C33.6985 21.2189 33.6547 21.2494 33.6182 21.2876C33.5818 21.3259 33.5535 21.3711 33.535 21.4206C33.5165 21.4702 33.5083 21.5229 33.5108 21.5757ZM27.4945 35.229C26.5553 35.2298 25.6303 34.9992 24.8013 34.5574C23.9724 34.1157 23.2651 33.4765 22.7419 32.6965L26.0557 32.855C26.1086 32.8575 26.1614 32.8492 26.2109 32.8307C26.2605 32.8122 26.3058 32.7839 26.344 32.7473C26.3823 32.7108 26.4127 32.6669 26.4335 32.6183C26.4543 32.5696 26.465 32.5173 26.4649 32.4644V30.9214C26.4649 30.8178 26.4238 30.7184 26.3505 30.6452C26.2773 30.5719 26.1779 30.5308 26.0743 30.5308H19.5574C19.4538 30.5308 19.3544 30.5719 19.2812 30.6452C19.2079 30.7184 19.1667 30.8178 19.1667 30.9214V37.4425C19.1667 37.5461 19.2079 37.6455 19.2812 37.7188C19.3544 37.792 19.4538 37.8332 19.5574 37.8332H21.0987C21.1517 37.8332 21.2041 37.8225 21.2529 37.8017C21.3016 37.7808 21.3455 37.7503 21.3821 37.7119C21.4186 37.6736 21.447 37.6282 21.4654 37.5785C21.4838 37.5288 21.492 37.4759 21.4893 37.423L21.3542 34.7352C22.1104 35.6255 23.0514 36.3406 24.1117 36.8306C25.1721 37.3206 26.3264 37.5739 27.4945 37.5728C31.4369 37.5728 34.7188 34.7433 35.4226 31.0031C35.433 30.9467 35.4309 30.8888 35.4164 30.8333C35.4019 30.7779 35.3754 30.7263 35.3387 30.6823C35.3021 30.6382 35.2562 30.6028 35.2043 30.5784C35.1524 30.5541 35.0958 30.5415 35.0385 30.5415H33.4418C33.3538 30.5416 33.2684 30.5714 33.1994 30.6261C33.1305 30.6808 33.082 30.7572 33.0619 30.8429C32.7613 32.093 32.0486 33.2055 31.0386 34.0012C30.0287 34.7968 28.7803 35.2293 27.4945 35.229Z" fill="url(#paint1_linear_249_461)"/>
<path d="M33.5108 21.5757L33.641 24.27C32.8847 23.3778 31.943 22.6613 30.8815 22.1703C29.82 21.6792 28.6641 21.4256 27.4945 21.4269C23.5525 21.4269 20.2706 24.2563 19.5668 27.9966C19.5564 28.0529 19.5585 28.1109 19.573 28.1663C19.5875 28.2218 19.614 28.2734 19.6507 28.3174C19.6873 28.3615 19.7332 28.3969 19.7851 28.4212C19.837 28.4456 19.8936 28.4582 19.9509 28.4582H21.5476C21.6356 28.4581 21.721 28.4283 21.79 28.3735C21.8589 28.3188 21.9074 28.2424 21.9275 28.1567C22.1879 27.0761 22.7572 26.0945 23.566 25.3319C24.3747 24.5693 25.388 24.0586 26.482 23.8621C27.5761 23.6656 28.7038 23.7917 29.7274 24.2252C30.751 24.6587 31.6263 25.3807 32.2465 26.3032L28.9438 26.145C28.8909 26.1425 28.8381 26.1508 28.7886 26.1693C28.739 26.1878 28.6937 26.2161 28.6555 26.2527C28.6172 26.2892 28.5868 26.3331 28.566 26.3817C28.5452 26.4304 28.5345 26.4827 28.5346 26.5356V28.0789C28.5346 28.1825 28.5757 28.2819 28.649 28.3552C28.7223 28.4284 28.8216 28.4696 28.9252 28.4696H35.4428C35.5464 28.4696 35.6457 28.4284 35.719 28.3552C35.7923 28.2819 35.8334 28.1825 35.8334 28.0789V21.5571C35.8334 21.4535 35.7923 21.3542 35.719 21.2809C35.6457 21.2077 35.5464 21.1665 35.4428 21.1665H33.9008C33.848 21.1665 33.7957 21.1773 33.7471 21.1981C33.6985 21.2189 33.6547 21.2494 33.6182 21.2876C33.5818 21.3259 33.5535 21.3711 33.535 21.4206C33.5165 21.4702 33.5083 21.5229 33.5108 21.5757ZM27.4945 35.229C26.5553 35.2298 25.6303 34.9992 24.8013 34.5574C23.9724 34.1157 23.2651 33.4765 22.7419 32.6965L26.0557 32.855C26.1086 32.8575 26.1614 32.8492 26.2109 32.8307C26.2605 32.8122 26.3058 32.7839 26.344 32.7473C26.3823 32.7108 26.4127 32.6669 26.4335 32.6183C26.4543 32.5696 26.465 32.5173 26.4649 32.4644V30.9214C26.4649 30.8178 26.4238 30.7184 26.3505 30.6452C26.2773 30.5719 26.1779 30.5308 26.0743 30.5308H19.5574C19.4538 30.5308 19.3544 30.5719 19.2812 30.6452C19.2079 30.7184 19.1667 30.8178 19.1667 30.9214V37.4425C19.1667 37.5461 19.2079 37.6455 19.2812 37.7188C19.3544 37.792 19.4538 37.8332 19.5574 37.8332H21.0987C21.1517 37.8332 21.2041 37.8225 21.2529 37.8017C21.3016 37.7808 21.3455 37.7503 21.3821 37.7119C21.4186 37.6736 21.447 37.6282 21.4654 37.5785C21.4838 37.5288 21.492 37.4759 21.4893 37.423L21.3542 34.7352C22.1104 35.6255 23.0514 36.3406 24.1117 36.8306C25.1721 37.3206 26.3264 37.5739 27.4945 37.5728C31.4369 37.5728 34.7188 34.7433 35.4226 31.0031C35.433 30.9467 35.4309 30.8888 35.4164 30.8333C35.4019 30.7779 35.3754 30.7263 35.3387 30.6823C35.3021 30.6382 35.2562 30.6028 35.2043 30.5784C35.1524 30.5541 35.0958 30.5415 35.0385 30.5415H33.4418C33.3538 30.5416 33.2684 30.5714 33.1994 30.6261C33.1305 30.6808 33.082 30.7572 33.0619 30.8429C32.7613 32.093 32.0486 33.2055 31.0386 34.0012C30.0287 34.7968 28.7803 35.2293 27.4945 35.229Z" stroke="white" stroke-width="3.33333" mask="url(#path-3-outside-1_249_461)"/>
<defs>
<linearGradient id="paint0_linear_249_461" x1="41.6667" y1="37.8335" x2="-6.58631" y2="-4.07656" gradientUnits="userSpaceOnUse">
<stop stop-color="#bbe1cb"/>
<stop offset="1" stop-color="#bbe1cb"/>
</linearGradient>
<linearGradient id="paint1_linear_249_461" x1="33.5001" y1="42.9258" x2="36.288" y2="19.8091" gradientUnits="userSpaceOnUse">
<stop stop-color="#617d3f"/>
<stop offset="1" stop-color="#617d3f"/>
</linearGradient>
</defs>
</svg>
