<svg width="40" height="42" viewBox="0 0 40 42" fill="none" xmlns="http://www.w3.org/2000/svg">
<path fill-rule="evenodd" clip-rule="evenodd" d="M9.56853 5.3335H14.7917C16.331 5.3335 17.8071 5.94494 18.8955 7.03332C19.9839 8.1217 20.5953 9.59786 20.5953 11.1371V14.0389C20.5953 15.6422 21.8953 16.9406 23.4971 16.9406H26.3989C27.9381 16.9406 29.4143 17.5521 30.5026 18.6405C31.591 19.7288 32.2025 21.205 32.2025 22.7442V34.9317C32.2025 36.5335 30.9025 37.8335 29.3007 37.8335H9.56853C8.79893 37.8335 8.06085 37.5278 7.51666 36.9836C6.97247 36.4394 6.66675 35.7013 6.66675 34.9317V8.23528C6.66675 6.63195 7.96675 5.3335 9.56853 5.3335Z" fill="url(#paint0_linear_249_463)"/>
<path d="M22.9164 11.1368C22.9191 9.18454 22.2161 7.29709 20.937 5.82227C23.5266 6.50316 25.8889 7.85967 27.7823 9.75304C29.6757 11.6464 31.0322 14.0087 31.7131 16.5983C30.2383 15.3192 28.3508 14.6162 26.3986 14.6189H23.4968C23.3429 14.6189 23.1952 14.5578 23.0864 14.4489C22.9776 14.3401 22.9164 14.1925 22.9164 14.0386V11.1368Z" fill="url(#paint1_linear_249_463)"/>
<mask id="path-3-outside-1_249_463" maskUnits="userSpaceOnUse" x="18" y="19.1665" width="20" height="22" fill="black">
<rect fill="white" x="18" y="19.1665" width="20" height="22"/>
<path d="M28.5342 21.2784L34.6916 23.5875C35.027 23.7132 35.316 23.9383 35.52 24.2327C35.7241 24.5271 35.8334 24.8768 35.8333 25.235V29.9525C35.8334 31.4227 35.424 32.8639 34.6511 34.1146C33.8781 35.3652 32.7722 36.376 31.4572 37.0335L28.5069 38.5077C28.3236 38.5994 28.1216 38.6471 27.9167 38.6471C27.7118 38.6471 27.5097 38.5994 27.3264 38.5077L24.3762 37.0326C23.0611 36.3751 21.9552 35.3644 21.1823 34.1137C20.4094 32.863 20 31.4218 20 29.9516V25.2359C19.9998 24.8775 20.109 24.5277 20.313 24.2331C20.5171 23.9385 20.8062 23.7132 21.1418 23.5875L27.2992 21.2784C27.6973 21.1292 28.136 21.1292 28.5342 21.2784ZM27.9167 26.3847C27.7012 26.3847 27.4933 26.4638 27.3323 26.607C27.1713 26.7501 27.0684 26.9474 27.0432 27.1614L27.037 27.2643V29.0236H25.2778C25.0536 29.0238 24.8379 29.1097 24.6749 29.2636C24.5119 29.4175 24.4138 29.6278 24.4006 29.8517C24.3875 30.0755 24.4603 30.2959 24.6042 30.4678C24.7481 30.6397 24.9522 30.7502 25.1749 30.7767L25.2778 30.7828H27.037V32.5421C27.0373 32.7663 27.1231 32.9819 27.277 33.145C27.431 33.308 27.6413 33.4061 27.8651 33.4192C28.0889 33.4324 28.3093 33.3596 28.4812 33.2157C28.6532 33.0718 28.7637 32.8676 28.7901 32.645L28.7963 32.5421V30.7828H30.5556C30.7798 30.7826 30.9954 30.6967 31.1584 30.5428C31.3215 30.3889 31.4196 30.1786 31.4327 29.9548C31.4458 29.7309 31.373 29.5106 31.2291 29.3386C31.0852 29.1667 30.8811 29.0562 30.6585 29.0297L30.5556 29.0236H28.7963V27.2643C28.7963 27.031 28.7036 26.8073 28.5387 26.6423C28.3737 26.4774 28.15 26.3847 27.9167 26.3847Z"/>
</mask>
<path d="M28.5342 21.2784L34.6916 23.5875C35.027 23.7132 35.316 23.9383 35.52 24.2327C35.7241 24.5271 35.8334 24.8768 35.8333 25.235V29.9525C35.8334 31.4227 35.424 32.8639 34.6511 34.1146C33.8781 35.3652 32.7722 36.376 31.4572 37.0335L28.5069 38.5077C28.3236 38.5994 28.1216 38.6471 27.9167 38.6471C27.7118 38.6471 27.5097 38.5994 27.3264 38.5077L24.3762 37.0326C23.0611 36.3751 21.9552 35.3644 21.1823 34.1137C20.4094 32.863 20 31.4218 20 29.9516V25.2359C19.9998 24.8775 20.109 24.5277 20.313 24.2331C20.5171 23.9385 20.8062 23.7132 21.1418 23.5875L27.2992 21.2784C27.6973 21.1292 28.136 21.1292 28.5342 21.2784ZM27.9167 26.3847C27.7012 26.3847 27.4933 26.4638 27.3323 26.607C27.1713 26.7501 27.0684 26.9474 27.0432 27.1614L27.037 27.2643V29.0236H25.2778C25.0536 29.0238 24.8379 29.1097 24.6749 29.2636C24.5119 29.4175 24.4138 29.6278 24.4006 29.8517C24.3875 30.0755 24.4603 30.2959 24.6042 30.4678C24.7481 30.6397 24.9522 30.7502 25.1749 30.7767L25.2778 30.7828H27.037V32.5421C27.0373 32.7663 27.1231 32.9819 27.277 33.145C27.431 33.308 27.6413 33.4061 27.8651 33.4192C28.0889 33.4324 28.3093 33.3596 28.4812 33.2157C28.6532 33.0718 28.7637 32.8676 28.7901 32.645L28.7963 32.5421V30.7828H30.5556C30.7798 30.7826 30.9954 30.6967 31.1584 30.5428C31.3215 30.3889 31.4196 30.1786 31.4327 29.9548C31.4458 29.7309 31.373 29.5106 31.2291 29.3386C31.0852 29.1667 30.8811 29.0562 30.6585 29.0297L30.5556 29.0236H28.7963V27.2643C28.7963 27.031 28.7036 26.8073 28.5387 26.6423C28.3737 26.4774 28.15 26.3847 27.9167 26.3847Z" fill="url(#paint2_linear_249_463)"/>
<path d="M28.5342 21.2784L34.6916 23.5875C35.027 23.7132 35.316 23.9383 35.52 24.2327C35.7241 24.5271 35.8334 24.8768 35.8333 25.235V29.9525C35.8334 31.4227 35.424 32.8639 34.6511 34.1146C33.8781 35.3652 32.7722 36.376 31.4572 37.0335L28.5069 38.5077C28.3236 38.5994 28.1216 38.6471 27.9167 38.6471C27.7118 38.6471 27.5097 38.5994 27.3264 38.5077L24.3762 37.0326C23.0611 36.3751 21.9552 35.3644 21.1823 34.1137C20.4094 32.863 20 31.4218 20 29.9516V25.2359C19.9998 24.8775 20.109 24.5277 20.313 24.2331C20.5171 23.9385 20.8062 23.7132 21.1418 23.5875L27.2992 21.2784C27.6973 21.1292 28.136 21.1292 28.5342 21.2784ZM27.9167 26.3847C27.7012 26.3847 27.4933 26.4638 27.3323 26.607C27.1713 26.7501 27.0684 26.9474 27.0432 27.1614L27.037 27.2643V29.0236H25.2778C25.0536 29.0238 24.8379 29.1097 24.6749 29.2636C24.5119 29.4175 24.4138 29.6278 24.4006 29.8517C24.3875 30.0755 24.4603 30.2959 24.6042 30.4678C24.7481 30.6397 24.9522 30.7502 25.1749 30.7767L25.2778 30.7828H27.037V32.5421C27.0373 32.7663 27.1231 32.9819 27.277 33.145C27.431 33.308 27.6413 33.4061 27.8651 33.4192C28.0889 33.4324 28.3093 33.3596 28.4812 33.2157C28.6532 33.0718 28.7637 32.8676 28.7901 32.645L28.7963 32.5421V30.7828H30.5556C30.7798 30.7826 30.9954 30.6967 31.1584 30.5428C31.3215 30.3889 31.4196 30.1786 31.4327 29.9548C31.4458 29.7309 31.373 29.5106 31.2291 29.3386C31.0852 29.1667 30.8811 29.0562 30.6585 29.0297L30.5556 29.0236H28.7963V27.2643C28.7963 27.031 28.7036 26.8073 28.5387 26.6423C28.3737 26.4774 28.15 26.3847 27.9167 26.3847Z" stroke="white" stroke-width="3.33333" mask="url(#path-3-outside-1_249_463)"/>
<defs>
<linearGradient id="paint0_linear_249_463" x1="36.4584" y1="37.8335" x2="-8.92143" y2="6.86489" gradientUnits="userSpaceOnUse">
<stop stop-color="#bbe1cb"/>
<stop offset="1" stop-color="#bbe1cb"/>
</linearGradient>
<linearGradient id="paint1_linear_249_463" x1="30.2044" y1="19.891" x2="32.007" y2="4.94459" gradientUnits="userSpaceOnUse">
<stop stop-color="#617d3f"/>
<stop offset="1" stop-color="#617d3f"/>
</linearGradient>
<linearGradient id="paint2_linear_249_463" x1="33.6167" y1="43.9884" x2="36.8349" y2="19.8186" gradientUnits="userSpaceOnUse">
<stop stop-color="#617d3f"/>
<stop offset="1" stop-color="#617d3f"/>
</linearGradient>
</defs>
</svg>
