<svg width="40" height="42" viewBox="0 0 40 42" fill="none" xmlns="http://www.w3.org/2000/svg">
<path d="M7.42801 7.25593L3.75 14.6192H18.8393V5.3335H10.5474C9.22712 5.3335 8.02288 6.08071 7.42801 7.25593ZM21.1607 14.6192H36.25L32.572 7.25593C31.9771 6.08071 30.7729 5.3335 29.4526 5.3335H21.1607V14.6192ZM36.25 16.9406H3.75V33.1906C3.75 35.7515 5.83203 37.8335 8.39286 37.8335H31.6071C34.168 37.8335 36.25 35.7515 36.25 33.1906V16.9406Z" fill="url(#paint0_linear_249_453)"/>
<mask id="path-2-outside-1_249_453" maskUnits="userSpaceOnUse" x="5.5" y="21.25" width="18" height="15" fill="black">
<rect fill="white" x="5.5" y="21.25" width="18" height="15"/>
<path fill-rule="evenodd" clip-rule="evenodd" d="M7.5 24.5C7.5 23.8096 8.05964 23.25 8.75 23.25H17.0833C17.7737 23.25 18.3333 23.8096 18.3333 24.5C18.3333 25.1904 17.7737 25.75 17.0833 25.75H8.75C8.05964 25.75 7.5 25.1904 7.5 24.5ZM10.4167 28.6667C10.4167 27.9763 10.9763 27.4167 11.6667 27.4167H20C20.6904 27.4167 21.25 27.9763 21.25 28.6667C21.25 29.357 20.6904 29.9167 20 29.9167H11.6667C10.9763 29.9167 10.4167 29.357 10.4167 28.6667ZM10.8333 31.5833C10.143 31.5833 9.58333 32.143 9.58333 32.8333C9.58333 33.5237 10.143 34.0833 10.8333 34.0833H19.1667C19.857 34.0833 20.4167 33.5237 20.4167 32.8333C20.4167 32.143 19.857 31.5833 19.1667 31.5833H10.8333Z"/>
</mask>
<path fill-rule="evenodd" clip-rule="evenodd" d="M7.5 24.5C7.5 23.8096 8.05964 23.25 8.75 23.25H17.0833C17.7737 23.25 18.3333 23.8096 18.3333 24.5C18.3333 25.1904 17.7737 25.75 17.0833 25.75H8.75C8.05964 25.75 7.5 25.1904 7.5 24.5ZM10.4167 28.6667C10.4167 27.9763 10.9763 27.4167 11.6667 27.4167H20C20.6904 27.4167 21.25 27.9763 21.25 28.6667C21.25 29.357 20.6904 29.9167 20 29.9167H11.6667C10.9763 29.9167 10.4167 29.357 10.4167 28.6667ZM10.8333 31.5833C10.143 31.5833 9.58333 32.143 9.58333 32.8333C9.58333 33.5237 10.143 34.0833 10.8333 34.0833H19.1667C19.857 34.0833 20.4167 33.5237 20.4167 32.8333C20.4167 32.143 19.857 31.5833 19.1667 31.5833H10.8333Z" fill="url(#paint1_linear_249_453)"/>
<path fill-rule="evenodd" clip-rule="evenodd" d="M7.5 24.5C7.5 23.8096 8.05964 23.25 8.75 23.25H17.0833C17.7737 23.25 18.3333 23.8096 18.3333 24.5C18.3333 25.1904 17.7737 25.75 17.0833 25.75H8.75C8.05964 25.75 7.5 25.1904 7.5 24.5ZM10.4167 28.6667C10.4167 27.9763 10.9763 27.4167 11.6667 27.4167H20C20.6904 27.4167 21.25 27.9763 21.25 28.6667C21.25 29.357 20.6904 29.9167 20 29.9167H11.6667C10.9763 29.9167 10.4167 29.357 10.4167 28.6667ZM10.8333 31.5833C10.143 31.5833 9.58333 32.143 9.58333 32.8333C9.58333 33.5237 10.143 34.0833 10.8333 34.0833H19.1667C19.857 34.0833 20.4167 33.5237 20.4167 32.8333C20.4167 32.143 19.857 31.5833 19.1667 31.5833H10.8333Z" stroke="white" stroke-width="3.33333" mask="url(#path-2-outside-1_249_453)"/>
<mask id="path-3-outside-2_249_453" maskUnits="userSpaceOnUse" x="13.8333" y="20.8335" width="25" height="19" fill="black">
<rect fill="white" x="13.8333" y="20.8335" width="25" height="19"/>
<path d="M20.5681 37.8335C19.779 37.8335 19.1082 37.5601 18.5558 37.0132C18.0034 36.4663 17.7272 35.8022 17.7272 35.021H16.7802C16.5119 35.021 16.2872 34.931 16.106 34.751C15.9248 34.571 15.8339 34.3485 15.8333 34.0835V24.7085C15.8333 24.1929 16.0189 23.7516 16.3901 23.3847C16.7613 23.0179 17.207 22.8341 17.7272 22.8335H29.0908C29.6117 22.8335 30.0577 23.0172 30.4289 23.3847C30.8001 23.7522 30.9854 24.1935 30.9848 24.7085V26.5835H32.8787C33.1786 26.5835 33.4627 26.6501 33.731 26.7832C33.9993 26.9163 34.2202 27.0997 34.3939 27.3335L36.4772 30.0757C36.5403 30.1538 36.5877 30.2397 36.6192 30.3335C36.6508 30.4272 36.6666 30.5288 36.6666 30.6382V34.0835C36.6666 34.3491 36.5757 34.5719 36.3939 34.7519C36.212 34.9319 35.9873 35.0216 35.7196 35.021H34.7726C34.7726 35.8022 34.4964 36.4663 33.944 37.0132C33.3916 37.5601 32.7209 37.8335 31.9317 37.8335C31.1426 37.8335 30.4718 37.5601 29.9194 37.0132C29.367 36.4663 29.0908 35.8022 29.0908 35.021H23.409C23.409 35.8022 23.1328 36.4663 22.5804 37.0132C22.028 37.5601 21.3572 37.8335 20.5681 37.8335ZM20.5681 35.9585C20.8364 35.9585 21.0615 35.8685 21.2433 35.6885C21.4251 35.5085 21.5157 35.286 21.5151 35.021C21.5144 34.756 21.4235 34.5335 21.2423 34.3535C21.0612 34.1735 20.8364 34.0835 20.5681 34.0835C20.2998 34.0835 20.075 34.1735 19.8939 34.3535C19.7127 34.5335 19.6218 34.756 19.6211 35.021C19.6205 35.286 19.7114 35.5088 19.8939 35.6894C20.0763 35.8701 20.3011 35.9597 20.5681 35.9585ZM31.9317 35.9585C32.2 35.9585 32.4251 35.8685 32.6069 35.6885C32.7887 35.5085 32.8793 35.286 32.8787 35.021C32.8781 34.756 32.7872 34.5335 32.606 34.3535C32.4248 34.1735 32.2 34.0835 31.9317 34.0835C31.6634 34.0835 31.4387 34.1735 31.2575 34.3535C31.0763 34.5335 30.9854 34.756 30.9848 35.021C30.9841 35.286 31.075 35.5088 31.2575 35.6894C31.4399 35.8701 31.6647 35.9597 31.9317 35.9585ZM30.9848 31.271H35.0094L32.8787 28.4585H30.9848V31.271Z"/>
</mask>
<path d="M20.5681 37.8335C19.779 37.8335 19.1082 37.5601 18.5558 37.0132C18.0034 36.4663 17.7272 35.8022 17.7272 35.021H16.7802C16.5119 35.021 16.2872 34.931 16.106 34.751C15.9248 34.571 15.8339 34.3485 15.8333 34.0835V24.7085C15.8333 24.1929 16.0189 23.7516 16.3901 23.3847C16.7613 23.0179 17.207 22.8341 17.7272 22.8335H29.0908C29.6117 22.8335 30.0577 23.0172 30.4289 23.3847C30.8001 23.7522 30.9854 24.1935 30.9848 24.7085V26.5835H32.8787C33.1786 26.5835 33.4627 26.6501 33.731 26.7832C33.9993 26.9163 34.2202 27.0997 34.3939 27.3335L36.4772 30.0757C36.5403 30.1538 36.5877 30.2397 36.6192 30.3335C36.6508 30.4272 36.6666 30.5288 36.6666 30.6382V34.0835C36.6666 34.3491 36.5757 34.5719 36.3939 34.7519C36.212 34.9319 35.9873 35.0216 35.7196 35.021H34.7726C34.7726 35.8022 34.4964 36.4663 33.944 37.0132C33.3916 37.5601 32.7209 37.8335 31.9317 37.8335C31.1426 37.8335 30.4718 37.5601 29.9194 37.0132C29.367 36.4663 29.0908 35.8022 29.0908 35.021H23.409C23.409 35.8022 23.1328 36.4663 22.5804 37.0132C22.028 37.5601 21.3572 37.8335 20.5681 37.8335ZM20.5681 35.9585C20.8364 35.9585 21.0615 35.8685 21.2433 35.6885C21.4251 35.5085 21.5157 35.286 21.5151 35.021C21.5144 34.756 21.4235 34.5335 21.2423 34.3535C21.0612 34.1735 20.8364 34.0835 20.5681 34.0835C20.2998 34.0835 20.075 34.1735 19.8939 34.3535C19.7127 34.5335 19.6218 34.756 19.6211 35.021C19.6205 35.286 19.7114 35.5088 19.8939 35.6894C20.0763 35.8701 20.3011 35.9597 20.5681 35.9585ZM31.9317 35.9585C32.2 35.9585 32.4251 35.8685 32.6069 35.6885C32.7887 35.5085 32.8793 35.286 32.8787 35.021C32.8781 34.756 32.7872 34.5335 32.606 34.3535C32.4248 34.1735 32.2 34.0835 31.9317 34.0835C31.6634 34.0835 31.4387 34.1735 31.2575 34.3535C31.0763 34.5335 30.9854 34.756 30.9848 35.021C30.9841 35.286 31.075 35.5088 31.2575 35.6894C31.4399 35.8701 31.6647 35.9597 31.9317 35.9585ZM30.9848 31.271H35.0094L32.8787 28.4585H30.9848V31.271Z" fill="url(#paint2_linear_249_453)"/>
<path d="M20.5681 37.8335C19.779 37.8335 19.1082 37.5601 18.5558 37.0132C18.0034 36.4663 17.7272 35.8022 17.7272 35.021H16.7802C16.5119 35.021 16.2872 34.931 16.106 34.751C15.9248 34.571 15.8339 34.3485 15.8333 34.0835V24.7085C15.8333 24.1929 16.0189 23.7516 16.3901 23.3847C16.7613 23.0179 17.207 22.8341 17.7272 22.8335H29.0908C29.6117 22.8335 30.0577 23.0172 30.4289 23.3847C30.8001 23.7522 30.9854 24.1935 30.9848 24.7085V26.5835H32.8787C33.1786 26.5835 33.4627 26.6501 33.731 26.7832C33.9993 26.9163 34.2202 27.0997 34.3939 27.3335L36.4772 30.0757C36.5403 30.1538 36.5877 30.2397 36.6192 30.3335C36.6508 30.4272 36.6666 30.5288 36.6666 30.6382V34.0835C36.6666 34.3491 36.5757 34.5719 36.3939 34.7519C36.212 34.9319 35.9873 35.0216 35.7196 35.021H34.7726C34.7726 35.8022 34.4964 36.4663 33.944 37.0132C33.3916 37.5601 32.7209 37.8335 31.9317 37.8335C31.1426 37.8335 30.4718 37.5601 29.9194 37.0132C29.367 36.4663 29.0908 35.8022 29.0908 35.021H23.409C23.409 35.8022 23.1328 36.4663 22.5804 37.0132C22.028 37.5601 21.3572 37.8335 20.5681 37.8335ZM20.5681 35.9585C20.8364 35.9585 21.0615 35.8685 21.2433 35.6885C21.4251 35.5085 21.5157 35.286 21.5151 35.021C21.5144 34.756 21.4235 34.5335 21.2423 34.3535C21.0612 34.1735 20.8364 34.0835 20.5681 34.0835C20.2998 34.0835 20.075 34.1735 19.8939 34.3535C19.7127 34.5335 19.6218 34.756 19.6211 35.021C19.6205 35.286 19.7114 35.5088 19.8939 35.6894C20.0763 35.8701 20.3011 35.9597 20.5681 35.9585ZM31.9317 35.9585C32.2 35.9585 32.4251 35.8685 32.6069 35.6885C32.7887 35.5085 32.8793 35.286 32.8787 35.021C32.8781 34.756 32.7872 34.5335 32.606 34.3535C32.4248 34.1735 32.2 34.0835 31.9317 34.0835C31.6634 34.0835 31.4387 34.1735 31.2575 34.3535C31.0763 34.5335 30.9854 34.756 30.9848 35.021C30.9841 35.286 31.075 35.5088 31.2575 35.6894C31.4399 35.8701 31.6647 35.9597 31.9317 35.9585ZM30.9848 31.271H35.0094L32.8787 28.4585H30.9848V31.271Z" stroke="white" stroke-width="3.33333" mask="url(#path-3-outside-2_249_453)"/>
<defs>
<linearGradient id="paint0_linear_249_453" x1="21.4444" y1="42.4169" x2="15.3822" y2="-1.88435" gradientUnits="userSpaceOnUse">
<stop stop-color="#bbe1cb"/>
<stop offset="1" stop-color="#bbe1cb"/>
</linearGradient>
<linearGradient id="paint1_linear_249_453" x1="19.325" y1="37.3935" x2="20.7606" y2="22.2855" gradientUnits="userSpaceOnUse">
<stop stop-color="#617d3f"/>
<stop offset="1" stop-color="#617d3f"/>
</linearGradient>
<linearGradient id="paint2_linear_249_453" x1="33.7499" y1="42.4168" x2="35.569" y2="21.4672" gradientUnits="userSpaceOnUse">
<stop stop-color="#617d3f"/>
<stop offset="1" stop-color="#617d3f"/>
</linearGradient>
</defs>
</svg>
