<svg width="40" height="42" viewBox="0 0 40 42" fill="none" xmlns="http://www.w3.org/2000/svg">
<path fill-rule="evenodd" clip-rule="evenodd" d="M9.56853 5.3335H14.7917C16.331 5.3335 17.8071 5.94494 18.8955 7.03332C19.9839 8.1217 20.5953 9.59786 20.5953 11.1371V14.0389C20.5953 15.6422 21.8953 16.9406 23.4971 16.9406H26.3989C27.9381 16.9406 29.4143 17.5521 30.5026 18.6405C31.591 19.7288 32.2025 21.205 32.2025 22.7442V34.9317C32.2025 36.5335 30.9025 37.8335 29.3007 37.8335H9.56853C8.79893 37.8335 8.06085 37.5278 7.51666 36.9836C6.97247 36.4394 6.66675 35.7013 6.66675 34.9317V8.23528C6.66675 6.63195 7.96675 5.3335 9.56853 5.3335Z" fill="url(#paint0_linear_249_457)"/>
<path d="M22.9164 11.1368C22.9191 9.18454 22.2161 7.29709 20.937 5.82227C23.5266 6.50316 25.8889 7.85967 27.7823 9.75304C29.6757 11.6464 31.0322 14.0087 31.7131 16.5983C30.2383 15.3192 28.3508 14.6162 26.3986 14.6189H23.4968C23.3429 14.6189 23.1952 14.5578 23.0864 14.4489C22.9776 14.3401 22.9164 14.1925 22.9164 14.0386V11.1368Z" fill="url(#paint1_linear_249_457)"/>
<mask id="path-3-outside-1_249_457" maskUnits="userSpaceOnUse" x="18" y="19.1665" width="21" height="21" fill="black">
<rect fill="white" x="18" y="19.1665" width="21" height="21"/>
<path d="M28.3333 21.1665C23.7333 21.1665 20 24.8998 20 29.4998C20 34.0998 23.7333 37.8332 28.3333 37.8332C32.9333 37.8332 36.6667 34.0998 36.6667 29.4998C36.6667 24.8998 32.9333 21.1665 28.3333 21.1665ZM28.3333 33.6665C27.875 33.6665 27.5 33.2915 27.5 32.8332V29.4998C27.5 29.0415 27.875 28.6665 28.3333 28.6665C28.7917 28.6665 29.1667 29.0415 29.1667 29.4998V32.8332C29.1667 33.2915 28.7917 33.6665 28.3333 33.6665ZM29.1667 26.1665C29.1667 26.6267 28.7936 26.9998 28.3333 26.9998V26.9998C27.8731 26.9998 27.5 26.6267 27.5 26.1665V26.1665C27.5 25.7063 27.8731 25.3332 28.3333 25.3332V25.3332C28.7936 25.3332 29.1667 25.7063 29.1667 26.1665V26.1665Z"/>
</mask>
<path d="M28.3333 21.1665C23.7333 21.1665 20 24.8998 20 29.4998C20 34.0998 23.7333 37.8332 28.3333 37.8332C32.9333 37.8332 36.6667 34.0998 36.6667 29.4998C36.6667 24.8998 32.9333 21.1665 28.3333 21.1665ZM28.3333 33.6665C27.875 33.6665 27.5 33.2915 27.5 32.8332V29.4998C27.5 29.0415 27.875 28.6665 28.3333 28.6665C28.7917 28.6665 29.1667 29.0415 29.1667 29.4998V32.8332C29.1667 33.2915 28.7917 33.6665 28.3333 33.6665ZM29.1667 26.1665C29.1667 26.6267 28.7936 26.9998 28.3333 26.9998V26.9998C27.8731 26.9998 27.5 26.6267 27.5 26.1665V26.1665C27.5 25.7063 27.8731 25.3332 28.3333 25.3332V25.3332C28.7936 25.3332 29.1667 25.7063 29.1667 26.1665V26.1665Z" fill="url(#paint2_linear_249_457)"/>
<path d="M28.3333 21.1665C23.7333 21.1665 20 24.8998 20 29.4998C20 34.0998 23.7333 37.8332 28.3333 37.8332C32.9333 37.8332 36.6667 34.0998 36.6667 29.4998C36.6667 24.8998 32.9333 21.1665 28.3333 21.1665ZM28.3333 33.6665C27.875 33.6665 27.5 33.2915 27.5 32.8332V29.4998C27.5 29.0415 27.875 28.6665 28.3333 28.6665C28.7917 28.6665 29.1667 29.0415 29.1667 29.4998V32.8332C29.1667 33.2915 28.7917 33.6665 28.3333 33.6665ZM29.1667 26.1665C29.1667 26.6267 28.7936 26.9998 28.3333 26.9998V26.9998C27.8731 26.9998 27.5 26.6267 27.5 26.1665V26.1665C27.5 25.7063 27.8731 25.3332 28.3333 25.3332V25.3332C28.7936 25.3332 29.1667 25.7063 29.1667 26.1665V26.1665Z" stroke="white" stroke-width="3.33333" mask="url(#path-3-outside-1_249_457)"/>
<defs>
<linearGradient id="paint0_linear_249_457" x1="36.4584" y1="37.8335" x2="-8.92143" y2="6.86489" gradientUnits="userSpaceOnUse">
<stop stop-color="#bbe1cb"/>
<stop offset="1" stop-color="#bbe1cb"/>
</linearGradient>
<linearGradient id="paint1_linear_249_457" x1="30.2044" y1="19.891" x2="32.007" y2="4.94459" gradientUnits="userSpaceOnUse">
<stop stop-color="#617d3f"/>
<stop offset="1" stop-color="#617d3f"/>
</linearGradient>
<linearGradient id="paint2_linear_249_457" x1="34.3333" y1="42.9258" x2="37.1212" y2="19.8091" gradientUnits="userSpaceOnUse">
<stop stop-color="#617d3f"/>
<stop offset="1" stop-color="#617d3f"/>
</linearGradient>
</defs>
</svg>
