<svg width="40" height="42" viewBox="0 0 40 42" fill="none" xmlns="http://www.w3.org/2000/svg">
<path fill-rule="evenodd" clip-rule="evenodd" d="M11.9 5.75006C8.705 5.75006 5.9875 6.89756 4.0825 8.99006C2.195 11.0601 1.25 13.8951 1.25 17.0326C1.25 22.4826 4.025 26.8251 7.55 30.2026C11.06 33.5651 15.475 36.1226 19.13 38.0351C19.3971 38.1752 19.694 38.2488 19.9956 38.2497C20.2972 38.2505 20.5946 38.1786 20.8625 38.0401C24.52 36.1476 28.9325 33.5701 32.445 30.1901C35.97 26.8026 38.75 22.4451 38.75 17.0326C38.75 13.8826 37.8 11.0501 35.91 8.98006C34.0025 6.89256 31.285 5.74756 28.1 5.74756C25.41 5.74756 23.185 6.74506 21.4925 8.62506C20.9143 9.27674 20.4134 9.99318 20 10.7601C19.5866 9.99318 19.0857 9.27674 18.5075 8.62506C16.815 6.74506 14.59 5.75006 11.9 5.75006Z" fill="url(#paint0_linear_249_447)"/>
<mask id="path-2-outside-1_249_447" maskUnits="userSpaceOnUse" x="7.58325" y="15" width="24" height="27" fill="black">
<rect fill="white" x="7.58325" y="15" width="24" height="27"/>
<path fill-rule="evenodd" clip-rule="evenodd" d="M24.5833 22C24.5833 24.7614 22.3447 27 19.5833 27C16.8218 27 14.5833 24.7614 14.5833 22C14.5833 19.2386 16.8218 17 19.5833 17C22.3447 17 24.5833 19.2386 24.5833 22ZM19.5833 40.3333C29.5833 40.3333 29.5833 37.8146 29.5833 34.7083C29.5833 31.6021 25.1058 29.0833 19.5833 29.0833C14.0608 29.0833 9.58325 31.6021 9.58325 34.7083C9.58325 37.8146 9.58325 40.3333 19.5833 40.3333Z"/>
</mask>
<path fill-rule="evenodd" clip-rule="evenodd" d="M24.5833 22C24.5833 24.7614 22.3447 27 19.5833 27C16.8218 27 14.5833 24.7614 14.5833 22C14.5833 19.2386 16.8218 17 19.5833 17C22.3447 17 24.5833 19.2386 24.5833 22ZM19.5833 40.3333C29.5833 40.3333 29.5833 37.8146 29.5833 34.7083C29.5833 31.6021 25.1058 29.0833 19.5833 29.0833C14.0608 29.0833 9.58325 31.6021 9.58325 34.7083C9.58325 37.8146 9.58325 40.3333 19.5833 40.3333Z" fill="url(#paint1_linear_249_447)"/>
<path d="M19.5833 28.6667C23.2652 28.6667 26.2499 25.6819 26.2499 22H22.9166C22.9166 23.8409 21.4242 25.3333 19.5833 25.3333V28.6667ZM12.9166 22C12.9166 25.6819 15.9014 28.6667 19.5833 28.6667V25.3333C17.7423 25.3333 16.2499 23.8409 16.2499 22H12.9166ZM19.5833 15.3333C15.9014 15.3333 12.9166 18.3181 12.9166 22H16.2499C16.2499 20.1591 17.7423 18.6667 19.5833 18.6667V15.3333ZM26.2499 22C26.2499 18.3181 23.2652 15.3333 19.5833 15.3333V18.6667C21.4242 18.6667 22.9166 20.1591 22.9166 22H26.2499ZM27.9166 34.7083C27.9166 36.4062 27.827 36.9485 27.2808 37.3933C26.9435 37.668 26.2962 38.0022 25.0338 38.2577C23.7788 38.5118 22.026 38.6667 19.5833 38.6667V42C22.1405 42 24.1377 41.8401 25.6952 41.5248C27.2453 41.211 28.473 40.7213 29.3857 39.978C31.3395 38.3869 31.2499 36.1167 31.2499 34.7083H27.9166ZM19.5833 30.75C22.1124 30.75 24.3202 31.3303 25.8371 32.1836C27.4063 33.0663 27.9166 34.0248 27.9166 34.7083H31.2499C31.2499 32.2856 29.5214 30.4316 27.4713 29.2784C25.3689 28.0957 22.5766 27.4167 19.5833 27.4167V30.75ZM11.2499 34.7083C11.2499 34.0248 11.7602 33.0663 13.3294 32.1836C14.8464 31.3303 17.0541 30.75 19.5833 30.75V27.4167C16.5899 27.4167 13.7977 28.0957 11.6952 29.2784C9.64507 30.4316 7.91659 32.2856 7.91659 34.7083H11.2499ZM19.5833 38.6667C17.1405 38.6667 15.3877 38.5118 14.1327 38.2577C12.8703 38.0022 12.223 37.668 11.8857 37.3933C11.3395 36.9485 11.2499 36.4062 11.2499 34.7083H7.91659C7.91659 36.1167 7.82701 38.3869 9.78081 39.978C10.6935 40.7213 11.9212 41.211 13.4713 41.5248C15.0288 41.8401 17.026 42 19.5833 42V38.6667Z" fill="white" mask="url(#path-2-outside-1_249_447)"/>
<defs>
<linearGradient id="paint0_linear_249_447" x1="21.6667" y1="42.8333" x2="16.3879" y2="-1.67429" gradientUnits="userSpaceOnUse">
<stop stop-color="#bbe1cb"/>
<stop offset="1" stop-color="#bbe1cb"/>
</linearGradient>
<linearGradient id="paint1_linear_249_447" x1="26.7833" y1="47.463" x2="31.3134" y2="15.2663" gradientUnits="userSpaceOnUse">
<stop stop-color="#617d3f"/>
<stop offset="1" stop-color="#617d3f"/>
</linearGradient>
</defs>
</svg>
