<svg width="40" height="42" viewBox="0 0 40 42" fill="none" xmlns="http://www.w3.org/2000/svg">
<rect x="5.83325" y="8.6665" width="28.3333" height="10.8333" fill="url(#paint0_linear_249_449)"/>
<path d="M8.37505 37C7.45838 37 6.67394 36.6739 6.02172 36.0217C5.36949 35.3694 5.04283 34.5844 5.04172 33.6667V20.4167C4.40283 19.8333 3.91005 19.0833 3.56338 18.1667C3.21672 17.25 3.20949 16.25 3.54172 15.1667L5.29172 9.5C5.51394 8.77778 5.91005 8.18056 6.48005 7.70833C7.05005 7.23611 7.70949 7 8.45838 7H31.6251C32.3751 7 33.0278 7.22944 33.5834 7.68833C34.1389 8.14722 34.5417 8.75111 34.7917 9.5L36.5417 15.1667C36.875 16.25 36.8684 17.2361 36.5217 18.125C36.1751 19.0139 35.6817 19.7778 35.0417 20.4167V33.6667C35.0417 34.5833 34.7156 35.3683 34.0634 36.0217C33.4112 36.675 32.6262 37.0011 31.7084 37H8.37505ZM23.7084 18.6667C24.4584 18.6667 25.0278 18.41 25.4167 17.8967C25.8056 17.3833 25.9584 16.8067 25.8751 16.1667L24.9584 10.3333H21.7084V16.5C21.7084 17.0833 21.9028 17.5906 22.2917 18.0217C22.6806 18.4528 23.1528 18.6678 23.7084 18.6667ZM16.2084 18.6667C16.8473 18.6667 17.3684 18.4511 17.7717 18.02C18.1751 17.5889 18.3762 17.0822 18.3751 16.5V10.3333H15.125L14.2084 16.1667C14.0973 16.8333 14.2428 17.4167 14.645 17.9167C15.0473 18.4167 15.5684 18.6667 16.2084 18.6667ZM8.79172 18.6667C9.29172 18.6667 9.72894 18.4861 10.1034 18.125C10.4778 17.7639 10.7073 17.3056 10.7917 16.75L11.7084 10.3333H8.45838L6.79172 15.9167C6.62505 16.4722 6.71505 17.0694 7.06172 17.7083C7.40838 18.3472 7.98505 18.6667 8.79172 18.6667ZM31.2917 18.6667C32.0973 18.6667 32.6806 18.3472 33.0417 17.7083C33.4028 17.0694 33.4862 16.4722 33.2917 15.9167L31.5417 10.3333H28.3751L29.2917 16.75C29.3751 17.3056 29.6045 17.7639 29.9801 18.125C30.3556 18.4861 30.7928 18.6667 31.2917 18.6667Z" fill="url(#paint1_linear_249_449)"/>
<mask id="path-3-outside-1_249_449" maskUnits="userSpaceOnUse" x="15.5" y="16.6665" width="25" height="25" fill="black">
<rect fill="white" x="15.5" y="16.6665" width="25" height="25"/>
<path d="M36.6279 26.5798C36.2842 26.2207 35.9288 25.8506 35.7948 25.5252C35.6708 25.2272 35.6635 24.7332 35.6562 24.2547C35.6426 23.3651 35.628 22.357 34.9271 21.6561C34.2262 20.9552 33.2181 20.9406 32.3285 20.9269C31.85 20.9196 31.356 20.9123 31.0579 20.7884C30.7335 20.6544 30.3625 20.2989 30.0034 19.9553C29.3745 19.351 28.6599 18.6665 27.7083 18.6665C26.7568 18.6665 26.0431 19.351 25.4133 19.9553C25.0542 20.2989 24.6841 20.6544 24.3587 20.7884C24.0625 20.9123 23.5667 20.9196 23.0882 20.9269C22.1986 20.9406 21.1905 20.9552 20.4896 21.6561C19.7887 22.357 19.7786 23.3651 19.7604 24.2547C19.7531 24.7332 19.7458 25.2272 19.6219 25.5252C19.4879 25.8497 19.1324 26.2207 18.7888 26.5798C18.1845 27.2087 17.5 27.9233 17.5 28.8748C17.5 29.8264 18.1845 30.5401 18.7888 31.1699C19.1324 31.529 19.4879 31.8991 19.6219 32.2244C19.7458 32.5225 19.7531 33.0165 19.7604 33.495C19.7741 34.3846 19.7887 35.3927 20.4896 36.0936C21.1905 36.7945 22.1986 36.8091 23.0882 36.8228C23.5667 36.83 24.0607 36.8373 24.3587 36.9613C24.6832 37.0953 25.0542 37.4507 25.4133 37.7944C26.0422 38.3987 26.7568 39.0832 27.7083 39.0832C28.6599 39.0832 29.3736 38.3987 30.0034 37.7944C30.3625 37.4507 30.7326 37.0953 31.0579 36.9613C31.356 36.8373 31.85 36.83 32.3285 36.8228C33.2181 36.8091 34.2262 36.7945 34.9271 36.0936C35.628 35.3927 35.6426 34.3846 35.6562 33.495C35.6635 33.0165 35.6708 32.5225 35.7948 32.2244C35.9288 31.9 36.2842 31.529 36.6279 31.1699C37.2322 30.541 37.9167 29.8264 37.9167 28.8748C37.9167 27.9233 37.2322 27.2096 36.6279 26.5798Z"/>
</mask>
<path d="M36.6279 26.5798C36.2842 26.2207 35.9288 25.8506 35.7948 25.5252C35.6708 25.2272 35.6635 24.7332 35.6562 24.2547C35.6426 23.3651 35.628 22.357 34.9271 21.6561C34.2262 20.9552 33.2181 20.9406 32.3285 20.9269C31.85 20.9196 31.356 20.9123 31.0579 20.7884C30.7335 20.6544 30.3625 20.2989 30.0034 19.9553C29.3745 19.351 28.6599 18.6665 27.7083 18.6665C26.7568 18.6665 26.0431 19.351 25.4133 19.9553C25.0542 20.2989 24.6841 20.6544 24.3587 20.7884C24.0625 20.9123 23.5667 20.9196 23.0882 20.9269C22.1986 20.9406 21.1905 20.9552 20.4896 21.6561C19.7887 22.357 19.7786 23.3651 19.7604 24.2547C19.7531 24.7332 19.7458 25.2272 19.6219 25.5252C19.4879 25.8497 19.1324 26.2207 18.7888 26.5798C18.1845 27.2087 17.5 27.9233 17.5 28.8748C17.5 29.8264 18.1845 30.5401 18.7888 31.1699C19.1324 31.529 19.4879 31.8991 19.6219 32.2244C19.7458 32.5225 19.7531 33.0165 19.7604 33.495C19.7741 34.3846 19.7887 35.3927 20.4896 36.0936C21.1905 36.7945 22.1986 36.8091 23.0882 36.8228C23.5667 36.83 24.0607 36.8373 24.3587 36.9613C24.6832 37.0953 25.0542 37.4507 25.4133 37.7944C26.0422 38.3987 26.7568 39.0832 27.7083 39.0832C28.6599 39.0832 29.3736 38.3987 30.0034 37.7944C30.3625 37.4507 30.7326 37.0953 31.0579 36.9613C31.356 36.8373 31.85 36.83 32.3285 36.8228C33.2181 36.8091 34.2262 36.7945 34.9271 36.0936C35.628 35.3927 35.6426 34.3846 35.6562 33.495C35.6635 33.0165 35.6708 32.5225 35.7948 32.2244C35.9288 31.9 36.2842 31.529 36.6279 31.1699C37.2322 30.541 37.9167 29.8264 37.9167 28.8748C37.9167 27.9233 37.2322 27.2096 36.6279 26.5798Z" fill="url(#paint2_linear_249_449)"/>
<path d="M36.6279 26.5798C36.2842 26.2207 35.9288 25.8506 35.7948 25.5252C35.6708 25.2272 35.6635 24.7332 35.6562 24.2547C35.6426 23.3651 35.628 22.357 34.9271 21.6561C34.2262 20.9552 33.2181 20.9406 32.3285 20.9269C31.85 20.9196 31.356 20.9123 31.0579 20.7884C30.7335 20.6544 30.3625 20.2989 30.0034 19.9553C29.3745 19.351 28.6599 18.6665 27.7083 18.6665C26.7568 18.6665 26.0431 19.351 25.4133 19.9553C25.0542 20.2989 24.6841 20.6544 24.3587 20.7884C24.0625 20.9123 23.5667 20.9196 23.0882 20.9269C22.1986 20.9406 21.1905 20.9552 20.4896 21.6561C19.7887 22.357 19.7786 23.3651 19.7604 24.2547C19.7531 24.7332 19.7458 25.2272 19.6219 25.5252C19.4879 25.8497 19.1324 26.2207 18.7888 26.5798C18.1845 27.2087 17.5 27.9233 17.5 28.8748C17.5 29.8264 18.1845 30.5401 18.7888 31.1699C19.1324 31.529 19.4879 31.8991 19.6219 32.2244C19.7458 32.5225 19.7531 33.0165 19.7604 33.495C19.7741 34.3846 19.7887 35.3927 20.4896 36.0936C21.1905 36.7945 22.1986 36.8091 23.0882 36.8228C23.5667 36.83 24.0607 36.8373 24.3587 36.9613C24.6832 37.0953 25.0542 37.4507 25.4133 37.7944C26.0422 38.3987 26.7568 39.0832 27.7083 39.0832C28.6599 39.0832 29.3736 38.3987 30.0034 37.7944C30.3625 37.4507 30.7326 37.0953 31.0579 36.9613C31.356 36.8373 31.85 36.83 32.3285 36.8228C33.2181 36.8091 34.2262 36.7945 34.9271 36.0936C35.628 35.3927 35.6426 34.3846 35.6562 33.495C35.6635 33.0165 35.6708 32.5225 35.7948 32.2244C35.9288 31.9 36.2842 31.529 36.6279 31.1699C37.2322 30.541 37.9167 29.8264 37.9167 28.8748C37.9167 27.9233 37.2322 27.2096 36.6279 26.5798Z" stroke="white" stroke-width="3.33333" mask="url(#path-3-outside-1_249_449)"/>
<path d="M23.75 28.6665L26.6667 30.7498L31.6667 26.1665" stroke="white" stroke-width="2.08333" stroke-linecap="round" stroke-linejoin="round"/>
<defs>
<linearGradient id="paint0_linear_249_449" x1="30.1999" y1="22.81" x2="30.9014" y2="7.59796" gradientUnits="userSpaceOnUse">
<stop stop-color="#bbe1cb"/>
<stop offset="1" stop-color="#bbe1cb"/>
</linearGradient>
<linearGradient id="paint1_linear_249_449" x1="21.5307" y1="41.2308" x2="16.4996" y2="0.188369" gradientUnits="userSpaceOnUse">
<stop stop-color="#bbe1cb"/>
<stop offset="1" stop-color="#bbe1cb"/>
</linearGradient>
<linearGradient id="paint2_linear_249_449" x1="35.0583" y1="45.3216" x2="38.4735" y2="17.0036" gradientUnits="userSpaceOnUse">
<stop stop-color="#617d3f"/>
<stop offset="1" stop-color="#617d3f"/>
</linearGradient>
</defs>
</svg>
