<svg width="40" height="42" viewBox="0 0 40 42" fill="none" xmlns="http://www.w3.org/2000/svg">
<path d="M2.9525 20.7281C2.07034 17.4391 1.62973 15.7963 2.37757 14.5003C3.12542 13.2043 4.76819 12.7636 8.05722 11.8815L25.4964 7.20409C28.7854 6.32194 30.4282 5.88133 31.7242 6.62917C33.0203 7.37701 33.4609 9.01978 34.343 12.3088L36.214 19.2845C37.0961 22.5735 37.5368 24.2163 36.7889 25.5123C36.0411 26.8083 34.3983 27.249 31.1093 28.1311L13.6701 32.8085C10.3811 33.6907 8.73829 34.1313 7.44225 33.3834C6.14622 32.6356 5.70561 30.9928 4.82346 27.7038L2.9525 20.7281Z" fill="url(#paint0_linear_249_455)"/>
<path d="M10.9907 29.7887C11.9538 29.5303 12.5252 28.5401 12.2669 27.577C12.0085 26.6139 11.0183 26.0425 10.0552 26.3008C9.09206 26.5591 8.52069 27.5493 8.77902 28.5125C9.03734 29.4756 10.0275 30.047 10.9907 29.7887Z" fill="url(#paint1_linear_249_455)"/>
<path d="M2.48486 18.9844L33.8754 10.5651L35.1039 15.1453L3.71334 23.5646L2.48486 18.9844Z" fill="url(#paint2_linear_249_455)"/>
<mask id="path-4-outside-1_249_455" maskUnits="userSpaceOnUse" x="16.3333" y="18.3335" width="21" height="21" fill="black">
<rect fill="white" x="16.3333" y="18.3335" width="21" height="21"/>
<path d="M22.4166 28.6668C22.4166 28.7918 22.4096 28.9204 22.3958 29.0527C22.3819 29.1849 22.361 29.3132 22.3333 29.4377C22.2916 29.6738 22.3194 29.8996 22.4166 30.1152C22.5138 30.3307 22.6735 30.4799 22.8958 30.5627C23.118 30.6454 23.3299 30.6385 23.5316 30.5418C23.7333 30.4452 23.8616 30.2854 23.9166 30.0627C23.9716 29.8399 24.0133 29.6107 24.0416 29.3752C24.0699 29.1396 24.0838 28.9035 24.0833 28.6668C24.0827 28.4302 24.0688 28.1941 24.0416 27.9585C24.0144 27.7229 23.9727 27.4938 23.9166 27.271C23.8605 27.0482 23.7321 26.8885 23.5316 26.7918C23.331 26.6952 23.1191 26.6882 22.8958 26.771C22.6724 26.8538 22.5127 27.0032 22.4166 27.2193C22.3205 27.4354 22.2927 27.661 22.3333 27.896C22.361 28.021 22.3819 28.1496 22.3958 28.2818C22.4096 28.4141 22.4166 28.5424 22.4166 28.6668ZM25.3333 28.6668C25.3333 29.0002 25.3124 29.3266 25.2708 29.646C25.2291 29.9654 25.1666 30.2779 25.0833 30.5835C25.0138 30.8196 25.0244 31.0418 25.1149 31.2502C25.2055 31.4585 25.3546 31.6043 25.5624 31.6877C25.7846 31.7849 26.0033 31.7816 26.2183 31.6777C26.4333 31.5738 26.5758 31.4035 26.6458 31.1668C26.7708 30.7641 26.861 30.3543 26.9166 29.9377C26.9721 29.521 26.9999 29.0974 26.9999 28.6668C26.9999 28.2363 26.9721 27.8127 26.9166 27.396C26.861 26.9793 26.7708 26.5696 26.6458 26.1668C26.5763 25.9307 26.4341 25.7607 26.2191 25.6568C26.0041 25.5529 25.7852 25.5493 25.5624 25.646C25.3541 25.7293 25.2049 25.8752 25.1149 26.0835C25.0249 26.2918 25.0144 26.5141 25.0833 26.7502C25.1666 27.0557 25.2291 27.3682 25.2708 27.6877C25.3124 28.0071 25.3333 28.3335 25.3333 28.6668ZM28.2499 28.6668C28.2499 29.1807 28.2152 29.6843 28.1458 30.1777C28.0763 30.671 27.9652 31.1535 27.8124 31.6252C27.743 31.8613 27.7466 32.0904 27.8233 32.3127C27.8999 32.5349 28.0491 32.6946 28.2708 32.7918C28.4924 32.8891 28.711 32.8891 28.9266 32.7918C29.1421 32.6946 29.2846 32.5279 29.3541 32.2918C29.5485 31.7085 29.6908 31.1182 29.7808 30.521C29.8708 29.9238 29.916 29.3057 29.9166 28.6668C29.9171 28.0279 29.8719 27.4099 29.7808 26.8127C29.6896 26.2154 29.5474 25.6252 29.3541 25.0418C29.2846 24.8057 29.1421 24.6391 28.9266 24.5418C28.711 24.4446 28.4924 24.4446 28.2708 24.5418C28.0491 24.6391 27.8996 24.7988 27.8224 25.021C27.7452 25.2432 27.7419 25.4724 27.8124 25.7085C27.9652 26.1807 28.0763 26.6635 28.1458 27.1568C28.2152 27.6502 28.2499 28.1535 28.2499 28.6668ZM26.6666 37.0002C25.5138 37.0002 24.4305 36.7813 23.4166 36.3435C22.4027 35.9057 21.5208 35.3121 20.7708 34.5627C20.0208 33.8132 19.4271 32.9313 18.9899 31.9168C18.5527 30.9024 18.3338 29.8191 18.3333 28.6668C18.3327 27.5146 18.5516 26.4313 18.9899 25.4168C19.4283 24.4024 20.0219 23.5204 20.7708 22.771C21.5196 22.0216 22.4016 21.4279 23.4166 20.9902C24.4316 20.5524 25.5149 20.3335 26.6666 20.3335C27.8183 20.3335 28.9016 20.5524 29.9166 20.9902C30.9316 21.4279 31.8135 22.0216 32.5624 22.771C33.3113 23.5204 33.9052 24.4024 34.3441 25.4168C34.783 26.4313 35.0016 27.5146 34.9999 28.6668C34.9983 29.8191 34.7794 30.9024 34.3433 31.9168C33.9071 32.9313 33.3135 33.8132 32.5624 34.5627C31.8113 35.3121 30.9294 35.906 29.9166 36.3443C28.9038 36.7827 27.8205 37.0013 26.6666 37.0002Z"/>
</mask>
<path d="M22.4166 28.6668C22.4166 28.7918 22.4096 28.9204 22.3958 29.0527C22.3819 29.1849 22.361 29.3132 22.3333 29.4377C22.2916 29.6738 22.3194 29.8996 22.4166 30.1152C22.5138 30.3307 22.6735 30.4799 22.8958 30.5627C23.118 30.6454 23.3299 30.6385 23.5316 30.5418C23.7333 30.4452 23.8616 30.2854 23.9166 30.0627C23.9716 29.8399 24.0133 29.6107 24.0416 29.3752C24.0699 29.1396 24.0838 28.9035 24.0833 28.6668C24.0827 28.4302 24.0688 28.1941 24.0416 27.9585C24.0144 27.7229 23.9727 27.4938 23.9166 27.271C23.8605 27.0482 23.7321 26.8885 23.5316 26.7918C23.331 26.6952 23.1191 26.6882 22.8958 26.771C22.6724 26.8538 22.5127 27.0032 22.4166 27.2193C22.3205 27.4354 22.2927 27.661 22.3333 27.896C22.361 28.021 22.3819 28.1496 22.3958 28.2818C22.4096 28.4141 22.4166 28.5424 22.4166 28.6668ZM25.3333 28.6668C25.3333 29.0002 25.3124 29.3266 25.2708 29.646C25.2291 29.9654 25.1666 30.2779 25.0833 30.5835C25.0138 30.8196 25.0244 31.0418 25.1149 31.2502C25.2055 31.4585 25.3546 31.6043 25.5624 31.6877C25.7846 31.7849 26.0033 31.7816 26.2183 31.6777C26.4333 31.5738 26.5758 31.4035 26.6458 31.1668C26.7708 30.7641 26.861 30.3543 26.9166 29.9377C26.9721 29.521 26.9999 29.0974 26.9999 28.6668C26.9999 28.2363 26.9721 27.8127 26.9166 27.396C26.861 26.9793 26.7708 26.5696 26.6458 26.1668C26.5763 25.9307 26.4341 25.7607 26.2191 25.6568C26.0041 25.5529 25.7852 25.5493 25.5624 25.646C25.3541 25.7293 25.2049 25.8752 25.1149 26.0835C25.0249 26.2918 25.0144 26.5141 25.0833 26.7502C25.1666 27.0557 25.2291 27.3682 25.2708 27.6877C25.3124 28.0071 25.3333 28.3335 25.3333 28.6668ZM28.2499 28.6668C28.2499 29.1807 28.2152 29.6843 28.1458 30.1777C28.0763 30.671 27.9652 31.1535 27.8124 31.6252C27.743 31.8613 27.7466 32.0904 27.8233 32.3127C27.8999 32.5349 28.0491 32.6946 28.2708 32.7918C28.4924 32.8891 28.711 32.8891 28.9266 32.7918C29.1421 32.6946 29.2846 32.5279 29.3541 32.2918C29.5485 31.7085 29.6908 31.1182 29.7808 30.521C29.8708 29.9238 29.916 29.3057 29.9166 28.6668C29.9171 28.0279 29.8719 27.4099 29.7808 26.8127C29.6896 26.2154 29.5474 25.6252 29.3541 25.0418C29.2846 24.8057 29.1421 24.6391 28.9266 24.5418C28.711 24.4446 28.4924 24.4446 28.2708 24.5418C28.0491 24.6391 27.8996 24.7988 27.8224 25.021C27.7452 25.2432 27.7419 25.4724 27.8124 25.7085C27.9652 26.1807 28.0763 26.6635 28.1458 27.1568C28.2152 27.6502 28.2499 28.1535 28.2499 28.6668ZM26.6666 37.0002C25.5138 37.0002 24.4305 36.7813 23.4166 36.3435C22.4027 35.9057 21.5208 35.3121 20.7708 34.5627C20.0208 33.8132 19.4271 32.9313 18.9899 31.9168C18.5527 30.9024 18.3338 29.8191 18.3333 28.6668C18.3327 27.5146 18.5516 26.4313 18.9899 25.4168C19.4283 24.4024 20.0219 23.5204 20.7708 22.771C21.5196 22.0216 22.4016 21.4279 23.4166 20.9902C24.4316 20.5524 25.5149 20.3335 26.6666 20.3335C27.8183 20.3335 28.9016 20.5524 29.9166 20.9902C30.9316 21.4279 31.8135 22.0216 32.5624 22.771C33.3113 23.5204 33.9052 24.4024 34.3441 25.4168C34.783 26.4313 35.0016 27.5146 34.9999 28.6668C34.9983 29.8191 34.7794 30.9024 34.3433 31.9168C33.9071 32.9313 33.3135 33.8132 32.5624 34.5627C31.8113 35.3121 30.9294 35.906 29.9166 36.3443C28.9038 36.7827 27.8205 37.0013 26.6666 37.0002Z" fill="url(#paint3_linear_249_455)"/>
<path d="M22.4166 28.6668C22.4166 28.7918 22.4096 28.9204 22.3958 29.0527C22.3819 29.1849 22.361 29.3132 22.3333 29.4377C22.2916 29.6738 22.3194 29.8996 22.4166 30.1152C22.5138 30.3307 22.6735 30.4799 22.8958 30.5627C23.118 30.6454 23.3299 30.6385 23.5316 30.5418C23.7333 30.4452 23.8616 30.2854 23.9166 30.0627C23.9716 29.8399 24.0133 29.6107 24.0416 29.3752C24.0699 29.1396 24.0838 28.9035 24.0833 28.6668C24.0827 28.4302 24.0688 28.1941 24.0416 27.9585C24.0144 27.7229 23.9727 27.4938 23.9166 27.271C23.8605 27.0482 23.7321 26.8885 23.5316 26.7918C23.331 26.6952 23.1191 26.6882 22.8958 26.771C22.6724 26.8538 22.5127 27.0032 22.4166 27.2193C22.3205 27.4354 22.2927 27.661 22.3333 27.896C22.361 28.021 22.3819 28.1496 22.3958 28.2818C22.4096 28.4141 22.4166 28.5424 22.4166 28.6668ZM25.3333 28.6668C25.3333 29.0002 25.3124 29.3266 25.2708 29.646C25.2291 29.9654 25.1666 30.2779 25.0833 30.5835C25.0138 30.8196 25.0244 31.0418 25.1149 31.2502C25.2055 31.4585 25.3546 31.6043 25.5624 31.6877C25.7846 31.7849 26.0033 31.7816 26.2183 31.6777C26.4333 31.5738 26.5758 31.4035 26.6458 31.1668C26.7708 30.7641 26.861 30.3543 26.9166 29.9377C26.9721 29.521 26.9999 29.0974 26.9999 28.6668C26.9999 28.2363 26.9721 27.8127 26.9166 27.396C26.861 26.9793 26.7708 26.5696 26.6458 26.1668C26.5763 25.9307 26.4341 25.7607 26.2191 25.6568C26.0041 25.5529 25.7852 25.5493 25.5624 25.646C25.3541 25.7293 25.2049 25.8752 25.1149 26.0835C25.0249 26.2918 25.0144 26.5141 25.0833 26.7502C25.1666 27.0557 25.2291 27.3682 25.2708 27.6877C25.3124 28.0071 25.3333 28.3335 25.3333 28.6668ZM28.2499 28.6668C28.2499 29.1807 28.2152 29.6843 28.1458 30.1777C28.0763 30.671 27.9652 31.1535 27.8124 31.6252C27.743 31.8613 27.7466 32.0904 27.8233 32.3127C27.8999 32.5349 28.0491 32.6946 28.2708 32.7918C28.4924 32.8891 28.711 32.8891 28.9266 32.7918C29.1421 32.6946 29.2846 32.5279 29.3541 32.2918C29.5485 31.7085 29.6908 31.1182 29.7808 30.521C29.8708 29.9238 29.916 29.3057 29.9166 28.6668C29.9171 28.0279 29.8719 27.4099 29.7808 26.8127C29.6896 26.2154 29.5474 25.6252 29.3541 25.0418C29.2846 24.8057 29.1421 24.6391 28.9266 24.5418C28.711 24.4446 28.4924 24.4446 28.2708 24.5418C28.0491 24.6391 27.8996 24.7988 27.8224 25.021C27.7452 25.2432 27.7419 25.4724 27.8124 25.7085C27.9652 26.1807 28.0763 26.6635 28.1458 27.1568C28.2152 27.6502 28.2499 28.1535 28.2499 28.6668ZM26.6666 37.0002C25.5138 37.0002 24.4305 36.7813 23.4166 36.3435C22.4027 35.9057 21.5208 35.3121 20.7708 34.5627C20.0208 33.8132 19.4271 32.9313 18.9899 31.9168C18.5527 30.9024 18.3338 29.8191 18.3333 28.6668C18.3327 27.5146 18.5516 26.4313 18.9899 25.4168C19.4283 24.4024 20.0219 23.5204 20.7708 22.771C21.5196 22.0216 22.4016 21.4279 23.4166 20.9902C24.4316 20.5524 25.5149 20.3335 26.6666 20.3335C27.8183 20.3335 28.9016 20.5524 29.9166 20.9902C30.9316 21.4279 31.8135 22.0216 32.5624 22.771C33.3113 23.5204 33.9052 24.4024 34.3441 25.4168C34.783 26.4313 35.0016 27.5146 34.9999 28.6668C34.9983 29.8191 34.7794 30.9024 34.3433 31.9168C33.9071 32.9313 33.3135 33.8132 32.5624 34.5627C31.8113 35.3121 30.9294 35.906 29.9166 36.3443C28.9038 36.7827 27.8205 37.0013 26.6666 37.0002Z" stroke="white" stroke-width="3.33333" mask="url(#path-4-outside-1_249_455)"/>
<defs>
<linearGradient id="paint0_linear_249_455" x1="43.3167" y1="24.8569" x2="2.41169" y2="-6.50498" gradientUnits="userSpaceOnUse">
<stop stop-color="#bbe1cb"/>
<stop offset="1" stop-color="#bbe1cb"/>
</linearGradient>
<linearGradient id="paint1_linear_249_455" x1="12.5321" y1="30.5176" x2="11.8181" y2="25.5235" gradientUnits="userSpaceOnUse">
<stop stop-color="#617d3f"/>
<stop offset="1" stop-color="#617d3f"/>
</linearGradient>
<linearGradient id="paint2_linear_249_455" x1="31.0846" y1="17.7236" x2="29.4698" y2="11.2499" gradientUnits="userSpaceOnUse">
<stop stop-color="#bbe1cb"/>
<stop offset="1" stop-color="#bbe1cb"/>
</linearGradient>
<linearGradient id="paint3_linear_249_455" x1="32.6666" y1="42.0928" x2="35.4545" y2="18.976" gradientUnits="userSpaceOnUse">
<stop stop-color="#617d3f"/>
<stop offset="1" stop-color="#617d3f"/>
</linearGradient>
</defs>
</svg>
